<?xml version="1.0" encoding="UTF-8"?>
<svg id="Slogan-transpBG" xmlns="http://www.w3.org/2000/svg" viewBox="0 0 1800 750">
  <defs>
    <style>
      .cls-1 {
        fill: #f6f6f6;
      }
    </style>
  </defs>
  <g>
    <path class="cls-1" d="M40.26,571.3h13.31v18.3c7.37-14.26,20.44-20.44,35.41-20.44,17.58,0,30.89,9.03,37.31,24.48,6.65-15.68,20.91-24.48,38.97-24.48,25.9,0,43.25,20.2,43.25,47.76v65.11h-14.26v-62.97c0-21.15-11.88-36.12-31.37-36.12s-31.37,14.97-31.37,36.12v62.97h-14.26v-62.97c0-21.15-11.88-36.12-31.37-36.12s-31.37,14.97-31.37,36.12v62.97h-14.26v-110.73Z"/>
    <path class="cls-1" d="M342.6,620.02l-90.3,20.85c6.88,21.34,24.56,34.57,47.95,29.17,16.9-3.9,27.53-14.89,30.47-30.69l13.68,2.21c-3.44,21.03-18.23,36.16-41.39,41.5-32.88,7.59-59.15-12.2-66.58-44.38-7.43-32.18,7.56-61.25,40.44-68.84,32.65-7.54,57.3,12.62,64.62,44.34.32,1.39.96,4.17,1.1,5.84ZM249.58,629.06l76.18-17.59c-6.82-21.11-22.96-33.96-45.88-28.67s-32.84,24.65-30.29,46.26Z"/>
    <path class="cls-1" d="M363.43,626.67c0-32.08,21.15-57.98,53.94-57.98,18.06,0,34.93,8.32,44.2,24.24v-84.36h14.26v173.47h-14.26v-21.86c-9.03,15.68-24.48,24.48-44.2,24.48-32.79,0-53.94-25.66-53.94-57.98ZM460.38,626.67c0-24.24-14.73-44.44-41.11-44.44s-41.11,19.96-41.11,44.44,15.45,44.67,41.11,44.67,41.11-19.96,41.11-44.67Z"/>
    <path class="cls-1" d="M506.48,709.84c0-8.08,6.65-13.07,13.78-13.07s13.31,4.99,13.31,13.07-6.42,13.07-13.31,13.07-13.78-5.23-13.78-13.07ZM527.39,571.3v110.73h-14.26v-110.73h14.26Z"/>
    <path class="cls-1" d="M556.15,626.67c0-32.08,21.39-57.98,53.94-57.98,18.54,0,34.93,8.32,44.2,24.71v-21.86h14.26v110.5h-14.26v-21.86c-8.79,15.68-24.48,24.48-44.2,24.48-32.55,0-53.94-25.66-53.94-57.98ZM653.34,626.67c0-24.24-14.97-44.44-41.11-44.44s-41.11,20.2-41.11,44.44,15.45,44.67,41.11,44.67,41.11-19.96,41.11-44.67Z"/>
  </g>
  <g>
    <path class="cls-1" d="M35.62,26.17h54.66v306.54l120.6-152.68h65.94l-95.05,117.63,137.83,198.75h-64.16l-109.9-159.54h-55.25v122.97h-54.66V26.17Z"/>
    <path class="cls-1" d="M342.16,180.04h54.66v30.89c11.29-24.36,35.05-35.05,61.78-35.05,52.28,0,78.42,37.43,76.64,90.3h-54.06c.59-25.55-14.26-42.77-40.4-42.77-27.92,0-43.96,21.98-43.96,55.84v180.6h-54.66V180.04Z"/>
    <path class="cls-1" d="M565.53,319.06c0-81.39,54.06-146.74,136.04-146.74,40.99,0,78.42,16.04,102.78,49.31v-41.59h54.66v279.81h-54.66v-41.59c-24.36,32.67-60,49.31-102.78,49.31-81.98,0-136.04-65.94-136.04-148.52ZM801.38,319.65c0-52.87-32.08-96.83-89.71-96.83s-89.71,43.96-89.71,96.83,32.67,96.83,89.71,96.83,89.71-42.77,89.71-96.83Z"/>
    <path class="cls-1" d="M923.76,319.65c0-81.98,57.63-147.33,149.11-147.33,60,0,106.34,29.11,130.7,72.48l-49.31,24.95c-14.85-27.92-42.77-46.93-81.39-46.93-59.41,0-93.27,43.37-93.27,96.83s33.86,96.83,93.27,96.83c38.62,0,66.54-18.42,81.39-46.34l49.31,24.36c-24.36,43.37-70.7,73.07-130.7,73.07-91.49,0-149.11-65.35-149.11-147.93Z"/>
    <path class="cls-1" d="M1314.07,26.17v189.51c19.6-30.3,52.28-43.37,89.11-43.37,71.29,0,112.88,52.87,112.88,122.97v164.56h-54.66v-159.21c0-45.15-27.33-76.64-72.48-76.64s-73.07,31.49-73.07,76.64v159.21h-54.66V26.17h52.87Z"/>
    <path class="cls-1" d="M1671.11,180.04h93.27v49.9h-93.27v229.91h-54.66v-229.91h-57.03l87.92-145.55h23.76v95.65Z"/>
  </g>
  <g>
    <path class="cls-1" d="M963.1,600.02c0,45.39-32.79,85.78-86.02,85.78s-86.26-40.4-86.26-85.78,32.79-85.78,86.26-85.78c26.85,0,48.95,10.22,63.92,26.14l-11.41,10.22c-12.12-13.31-30.18-21.86-52.52-21.86-45.15,0-70.58,34.46-70.58,71.29s25.43,71.29,70.58,71.29c36.12,0,59.88-22.58,67.72-50.85l-47.48-30.17,65.31-.48c.24,3.33.48,6.89.48,10.22Z"/>
    <path class="cls-1" d="M991.62,572.46h13.31v18.3c7.37-14.26,20.44-20.44,35.41-20.44,17.58,0,30.89,9.03,37.31,24.48,6.65-15.68,20.91-24.48,38.97-24.48,25.9,0,43.25,20.2,43.25,47.76v65.11h-14.26v-62.97c0-21.15-11.88-36.12-31.37-36.12s-31.37,14.97-31.37,36.12v62.97h-14.26v-62.97c0-21.15-11.88-36.12-31.37-36.12s-31.37,14.97-31.37,36.12v62.97h-14.26v-110.73Z"/>
    <path class="cls-1" d="M1208.81,699.35v21.86h-14.26v-204.59h14.26v115.48c9.27-15.92,26.14-24.24,44.2-24.24,32.79,0,53.94,25.9,53.94,57.98s-21.15,57.98-53.94,57.98c-19.49,0-35.17-8.79-44.2-24.48ZM1292.22,665.84c0-24.48-15.45-44.44-41.11-44.44s-41.11,20.2-41.11,44.44,14.97,44.67,41.11,44.67,41.11-19.96,41.11-44.67Z"/>
    <path class="cls-1" d="M1356.14,516.85v74.61h106.93v-74.61h15.21v166.34h-15.21v-77.7h-106.93v77.7h-15.21v-166.34h15.21Z"/>
  </g>
</svg>